STARTFONT 2.1
FONT -FontForge-FS Sevegment-Book-R-Normal--40-380-75-75-P-260-ISO10646-1
SIZE 38 75 75
FONTBOUNDINGBOX 31 40 0 0
COMMENT "Generated by fontforge, http://fontforge.sourceforge.net"
COMMENT "Copyright moontr3 2023"
STARTPROPERTIES 40
FOUNDRY "FontForge"
FAMILY_NAME "FS Sevegment"
WEIGHT_NAME "Book"
SLANT "R"
SETWIDTH_NAME "Normal"
ADD_STYLE_NAME ""
PIXEL_SIZE 40
POINT_SIZE 380
RESOLUTION_X 75
RESOLUTION_Y 75
SPACING "P"
AVERAGE_WIDTH 260
CHARSET_REGISTRY "ISO10646"
CHARSET_ENCODING "1"
FONTNAME_REGISTRY ""
CHARSET_COLLECTIONS "ISO10646-1"
FONT_NAME "FSSevegment"
FACE_NAME "FS Sevegment Regular"
COPYRIGHT "Copyright moontr3 2023"
FONT_VERSION "1.0"
FONT_ASCENT 40
FONT_DESCENT 0
UNDERLINE_POSITION 3
UNDERLINE_THICKNESS 2
X_HEIGHT 36
CAP_HEIGHT 36
RAW_ASCENT 1000
RAW_DESCENT 0
NORM_SPACE 26
RELATIVE_WEIGHT 40
RELATIVE_SETWIDTH 50
SUPERSCRIPT_X 0
SUPERSCRIPT_Y 20
SUPERSCRIPT_SIZE 20
SUBSCRIPT_X 0
SUBSCRIPT_Y 0
SUBSCRIPT_SIZE 20
FIGURE_WIDTH 26
AVG_LOWERCASE_WIDTH 260
AVG_UPPERCASE_WIDTH 260
ENDPROPERTIES
CHARS 85
STARTCHAR space
ENCODING 32
SWIDTH 275 0
DWIDTH 11 0
BBX 1 1 0 0
BITMAP
00
ENDCHAR
STARTCHAR exclam
ENCODING 33
SWIDTH 646 0
DWIDTH 26 0
BBX 18 37 0 0
BITMAP
C00000
E00000
F00000
F80000
F80000
F80000
F80000
F80000
F80000
F80000
F80000
F80000
F80000
F80000
700000
200000
000000
000000
000000
000000
000000
000000
000000
000000
000000
000000
000000
000000
000000
000000
000000
000000
03FE00
07FF00
0FFF80
1FFFC0
1FFFC0
ENDCHAR
STARTCHAR quotedbl
ENCODING 34
SWIDTH 646 0
DWIDTH 26 0
BBX 21 16 0 21
BITMAP
C00018
E00038
F00078
F800F8
F800F8
F800F8
F800F8
F800F8
F800F8
F800F8
F800F8
F800F8
F800F8
F800F8
700070
200020
ENDCHAR
STARTCHAR quotesingle
ENCODING 39
SWIDTH 646 0
DWIDTH 26 0
BBX 5 16 0 21
BITMAP
C0
E0
F0
F8
F8
F8
F8
F8
F8
F8
F8
F8
F8
F8
70
20
ENDCHAR
STARTCHAR parenleft
ENCODING 40
SWIDTH 646 0
DWIDTH 26 0
BBX 19 40 0 0
BITMAP
1FFFC0
1FFFE0
0FFFC0
C7FF80
E3FF00
F00000
F80000
F80000
F80000
F80000
F80000
F80000
F80000
F80000
F80000
F80000
F80000
700000
200000
000000
000000
200000
700000
F80000
F80000
F80000
F80000
F80000
F80000
F80000
F80000
F80000
F80000
F80000
F00000
E3FE00
C7FF00
0FFF80
1FFFC0
1FFFC0
ENDCHAR
STARTCHAR parenright
ENCODING 41
SWIDTH 646 0
DWIDTH 26 0
BBX 18 40 3 0
BITMAP
FFFE00
FFFF00
7FFE00
3FFCC0
1FF9C0
0003C0
0007C0
0007C0
0007C0
0007C0
0007C0
0007C0
0007C0
0007C0
0007C0
0007C0
0007C0
000380
000100
000000
000000
000100
000380
0007C0
0007C0
0007C0
0007C0
0007C0
0007C0
0007C0
0007C0
0007C0
0007C0
0007C0
0003C0
1FF1C0
3FF8C0
7FFC00
FFFE00
FFFE00
ENDCHAR
STARTCHAR plus
ENCODING 43
SWIDTH 1000 0
DWIDTH 26 0
BBX 13 10 4 15
BITMAP
0200
0700
0700
7FF0
FFF8
FFF8
7FF0
0700
0700
0200
ENDCHAR
STARTCHAR comma
ENCODING 44
SWIDTH 646 0
DWIDTH 26 0
BBX 5 16 0 3
BITMAP
20
70
F8
F8
F8
F8
F8
F8
F8
F8
F8
F8
F8
F0
E0
C0
ENDCHAR
STARTCHAR hyphen
ENCODING 45
SWIDTH 500 0
DWIDTH 20 0
BBX 13 4 3 18
BITMAP
7FF0
FFF8
FFF8
7FF0
ENDCHAR
STARTCHAR period
ENCODING 46
SWIDTH 175 0
DWIDTH 7 0
BBX 3 3 1 0
BITMAP
E0
E0
E0
ENDCHAR
STARTCHAR zero
ENCODING 48
SWIDTH 646 0
DWIDTH 26 0
BBX 21 40 0 0
BITMAP
1FFFC0
1FFFE0
0FFFC0
C7FF98
E3FF38
F00078
F800F8
F800F8
F800F8
F800F8
F800F8
F800F8
F800F8
F800F8
F800F8
F800F8
F800F8
700070
200020
000000
000000
200020
700070
F800F8
F800F8
F800F8
F800F8
F800F8
F800F8
F800F8
F800F8
F800F8
F800F8
F800F8
F00078
E3FE38
C7FF18
0FFF80
1FFFC0
1FFFC0
ENDCHAR
STARTCHAR one
ENCODING 49
SWIDTH 646 0
DWIDTH 26 0
BBX 5 34 16 3
BITMAP
18
38
78
F8
F8
F8
F8
F8
F8
F8
F8
F8
F8
F8
70
20
00
00
20
70
F8
F8
F8
F8
F8
F8
F8
F8
F8
F8
F8
78
38
18
ENDCHAR
STARTCHAR two
ENCODING 50
SWIDTH 646 0
DWIDTH 26 0
BBX 21 40 0 0
BITMAP
1FFFC0
1FFFE0
0FFFC0
07FF98
03FF38
000078
0000F8
0000F8
0000F8
0000F8
0000F8
0000F8
0000F8
0000F8
0000F8
0000F8
0000F8
000070
07FF20
0FFF80
0FFF80
27FF00
700000
F80000
F80000
F80000
F80000
F80000
F80000
F80000
F80000
F80000
F80000
F80000
F00000
E3FE00
C7FF00
0FFF80
1FFFC0
1FFFC0
ENDCHAR
STARTCHAR three
ENCODING 51
SWIDTH 646 0
DWIDTH 26 0
BBX 18 40 3 0
BITMAP
FFFE00
FFFF00
7FFE00
3FFCC0
1FF9C0
0003C0
0007C0
0007C0
0007C0
0007C0
0007C0
0007C0
0007C0
0007C0
0007C0
0007C0
0007C0
000380
3FF900
7FFC00
7FFC00
3FF900
000380
0007C0
0007C0
0007C0
0007C0
0007C0
0007C0
0007C0
0007C0
0007C0
0007C0
0007C0
0003C0
1FF1C0
3FF8C0
7FFC00
FFFE00
FFFE00
ENDCHAR
STARTCHAR four
ENCODING 52
SWIDTH 646 0
DWIDTH 26 0
BBX 21 34 0 3
BITMAP
C00018
E00038
F00078
F800F8
F800F8
F800F8
F800F8
F800F8
F800F8
F800F8
F800F8
F800F8
F800F8
F800F8
700070
27FF20
0FFF80
0FFF80
07FF20
000070
0000F8
0000F8
0000F8
0000F8
0000F8
0000F8
0000F8
0000F8
0000F8
0000F8
0000F8
000078
000038
000018
ENDCHAR
STARTCHAR five
ENCODING 53
SWIDTH 646 0
DWIDTH 26 0
BBX 21 40 0 0
BITMAP
1FFFC0
1FFFE0
0FFFC0
C7FF80
E3FF00
F00000
F80000
F80000
F80000
F80000
F80000
F80000
F80000
F80000
F80000
F80000
F80000
700000
27FF00
0FFF80
0FFF80
07FF20
000070
0000F8
0000F8
0000F8
0000F8
0000F8
0000F8
0000F8
0000F8
0000F8
0000F8
0000F8
000078
03FE38
07FF18
0FFF80
1FFFC0
1FFFC0
ENDCHAR
STARTCHAR six
ENCODING 54
SWIDTH 646 0
DWIDTH 26 0
BBX 21 40 0 0
BITMAP
1FFFC0
1FFFE0
0FFFC0
C7FF80
E3FF00
F00000
F80000
F80000
F80000
F80000
F80000
F80000
F80000
F80000
F80000
F80000
F80000
700000
27FF00
0FFF80
0FFF80
27FF20
700070
F800F8
F800F8
F800F8
F800F8
F800F8
F800F8
F800F8
F800F8
F800F8
F800F8
F800F8
F00078
E3FE38
C7FF18
0FFF80
1FFFC0
1FFFC0
ENDCHAR
STARTCHAR seven
ENCODING 55
SWIDTH 646 0
DWIDTH 26 0
BBX 21 40 0 0
BITMAP
1FFFC0
1FFFE0
0FFFC0
C7FF98
E3FF38
F00078
F800F8
F800F8
F800F8
F800F8
F800F8
F800F8
F800F8
F800F8
F800F8
F800F8
F800F8
700070
200020
000000
000000
000020
000070
0000F8
0000F8
0000F8
0000F8
0000F8
0000F8
0000F8
0000F8
0000F8
0000F8
0000F8
000078
000038
000018
000000
000000
000008
ENDCHAR
STARTCHAR eight
ENCODING 56
SWIDTH 646 0
DWIDTH 26 0
BBX 21 40 0 0
BITMAP
1FFFC0
1FFFE0
0FFFC0
C7FF98
E3FF38
F00078
F800F8
F800F8
F800F8
F800F8
F800F8
F800F8
F800F8
F800F8
F800F8
F800F8
F800F8
700070
27FF20
0FFF80
0FFF80
27FF20
700070
F800F8
F800F8
F800F8
F800F8
F800F8
F800F8
F800F8
F800F8
F800F8
F800F8
F800F8
F00078
E3FE38
C7FF18
0FFF80
1FFFC0
1FFFC0
ENDCHAR
STARTCHAR nine
ENCODING 57
SWIDTH 646 0
DWIDTH 26 0
BBX 21 40 0 0
BITMAP
1FFFC0
1FFFE0
0FFFC0
C7FF98
E3FF38
F00078
F800F8
F800F8
F800F8
F800F8
F800F8
F800F8
F800F8
F800F8
F800F8
F800F8
F800F8
700070
27FF20
0FFF80
0FFF80
07FF20
000070
0000F8
0000F8
0000F8
0000F8
0000F8
0000F8
0000F8
0000F8
0000F8
0000F8
0000F8
000078
03FE38
07FF18
0FFF80
1FFFC0
1FFFC0
ENDCHAR
STARTCHAR colon
ENCODING 58
SWIDTH 275 0
DWIDTH 11 0
BBX 3 18 2 11
BITMAP
E0
E0
E0
00
00
00
00
00
00
00
00
00
00
00
00
E0
E0
E0
ENDCHAR
STARTCHAR equal
ENCODING 61
SWIDTH 646 0
DWIDTH 26 0
BBX 15 22 3 0
BITMAP
3FF8
7FFC
7FFC
3FF8
0000
0000
0000
0000
0000
0000
0000
0000
0000
0000
0000
0000
0000
1FF0
3FF8
7FFC
FFFE
FFFE
ENDCHAR
STARTCHAR question
ENCODING 63
SWIDTH 646 0
DWIDTH 26 0
BBX 18 40 3 0
BITMAP
FFFE00
FFFF00
7FFE00
3FFCC0
1FF9C0
0003C0
0007C0
0007C0
0007C0
0007C0
0007C0
0007C0
0007C0
0007C0
0007C0
0007C0
0007C0
000380
3FF900
7FFC00
7FFC00
3FF800
000000
000000
000000
000000
000000
000000
000000
000000
000000
000000
000000
000000
000000
1FF000
3FF800
7FFC00
FFFE00
FFFE00
ENDCHAR
STARTCHAR at
ENCODING 64
SWIDTH 646 0
DWIDTH 26 0
BBX 21 40 0 0
BITMAP
1FFFC0
1FFFE0
0FFFC0
C7FF98
E3FF38
F00078
F800F8
F800F8
F800F8
F800F8
F800F8
F800F8
F800F8
F800F8
F800F8
F800F8
F800F8
700070
27FF20
0FFF80
0FFF80
27FF00
700000
F80000
F80000
F80000
F80000
F80000
F80000
F80000
F80000
F80000
F80000
F80000
F00000
E3FE00
C7FF00
0FFF80
1FFFC0
1FFFC0
ENDCHAR
STARTCHAR A
ENCODING 65
SWIDTH 646 0
DWIDTH 26 0
BBX 21 37 0 3
BITMAP
1FFFC0
1FFFE0
0FFFC0
C7FF98
E3FF38
F00078
F800F8
F800F8
F800F8
F800F8
F800F8
F800F8
F800F8
F800F8
F800F8
F800F8
F800F8
700070
27FF20
0FFF80
0FFF80
27FF20
700070
F800F8
F800F8
F800F8
F800F8
F800F8
F800F8
F800F8
F800F8
F800F8
F800F8
F800F8
F00078
E00038
C00018
ENDCHAR
STARTCHAR B
ENCODING 66
SWIDTH 646 0
DWIDTH 26 0
BBX 21 37 0 0
BITMAP
C00000
E00000
F00000
F80000
F80000
F80000
F80000
F80000
F80000
F80000
F80000
F80000
F80000
F80000
700000
27FF00
0FFF80
0FFF80
27FF20
700070
F800F8
F800F8
F800F8
F800F8
F800F8
F800F8
F800F8
F800F8
F800F8
F800F8
F800F8
F00078
E3FE38
C7FF18
0FFF80
1FFFC0
1FFFC0
ENDCHAR
STARTCHAR C
ENCODING 67
SWIDTH 646 0
DWIDTH 26 0
BBX 19 40 0 0
BITMAP
1FFFC0
1FFFE0
0FFFC0
C7FF80
E3FF00
F00000
F80000
F80000
F80000
F80000
F80000
F80000
F80000
F80000
F80000
F80000
F80000
700000
200000
000000
000000
200000
700000
F80000
F80000
F80000
F80000
F80000
F80000
F80000
F80000
F80000
F80000
F80000
F00000
E3FE00
C7FF00
0FFF80
1FFFC0
1FFFC0
ENDCHAR
STARTCHAR D
ENCODING 68
SWIDTH 646 0
DWIDTH 26 0
BBX 21 37 0 0
BITMAP
000018
000038
000078
0000F8
0000F8
0000F8
0000F8
0000F8
0000F8
0000F8
0000F8
0000F8
0000F8
0000F8
000070
07FF20
0FFF80
0FFF80
27FF20
700070
F800F8
F800F8
F800F8
F800F8
F800F8
F800F8
F800F8
F800F8
F800F8
F800F8
F800F8
F00078
E3FE38
C7FF18
0FFF80
1FFFC0
1FFFC0
ENDCHAR
STARTCHAR E
ENCODING 69
SWIDTH 646 0
DWIDTH 26 0
BBX 19 40 0 0
BITMAP
1FFFC0
1FFFE0
0FFFC0
C7FF80
E3FF00
F00000
F80000
F80000
F80000
F80000
F80000
F80000
F80000
F80000
F80000
F80000
F80000
700000
27FF00
0FFF80
0FFF80
27FF00
700000
F80000
F80000
F80000
F80000
F80000
F80000
F80000
F80000
F80000
F80000
F80000
F00000
E3FE00
C7FF00
0FFF80
1FFFC0
1FFFC0
ENDCHAR
STARTCHAR F
ENCODING 70
SWIDTH 646 0
DWIDTH 26 0
BBX 19 37 0 3
BITMAP
1FFFC0
1FFFE0
0FFFC0
C7FF80
E3FF00
F00000
F80000
F80000
F80000
F80000
F80000
F80000
F80000
F80000
F80000
F80000
F80000
700000
27FF00
0FFF80
0FFF80
27FF00
700000
F80000
F80000
F80000
F80000
F80000
F80000
F80000
F80000
F80000
F80000
F80000
F00000
E00000
C00000
ENDCHAR
STARTCHAR G
ENCODING 71
SWIDTH 646 0
DWIDTH 26 0
BBX 21 40 0 0
BITMAP
1FFFC0
1FFFE0
0FFFC0
C7FF80
E3FF00
F00000
F80000
F80000
F80000
F80000
F80000
F80000
F80000
F80000
F80000
F80000
F80000
700000
200000
000000
000000
200020
700070
F800F8
F800F8
F800F8
F800F8
F800F8
F800F8
F800F8
F800F8
F800F8
F800F8
F800F8
F00078
E3FE38
C7FF18
0FFF80
1FFFC0
1FFFC0
ENDCHAR
STARTCHAR H
ENCODING 72
SWIDTH 646 0
DWIDTH 26 0
BBX 21 34 0 3
BITMAP
C00018
E00038
F00078
F800F8
F800F8
F800F8
F800F8
F800F8
F800F8
F800F8
F800F8
F800F8
F800F8
F800F8
700070
27FF20
0FFF80
0FFF80
27FF20
700070
F800F8
F800F8
F800F8
F800F8
F800F8
F800F8
F800F8
F800F8
F800F8
F800F8
F800F8
F00078
E00038
C00018
ENDCHAR
STARTCHAR I
ENCODING 73
SWIDTH 646 0
DWIDTH 26 0
BBX 5 34 16 3
BITMAP
18
38
78
F8
F8
F8
F8
F8
F8
F8
F8
F8
F8
F8
70
20
00
00
20
70
F8
F8
F8
F8
F8
F8
F8
F8
F8
F8
F8
78
38
18
ENDCHAR
STARTCHAR J
ENCODING 74
SWIDTH 646 0
DWIDTH 26 0
BBX 21 37 0 0
BITMAP
000018
000038
000078
0000F8
0000F8
0000F8
0000F8
0000F8
0000F8
0000F8
0000F8
0000F8
0000F8
0000F8
000070
000020
000000
000000
200020
700070
F800F8
F800F8
F800F8
F800F8
F800F8
F800F8
F800F8
F800F8
F800F8
F800F8
F800F8
F00078
E3FE38
C7FF18
0FFF80
1FFFC0
1FFFC0
ENDCHAR
STARTCHAR K
ENCODING 75
SWIDTH 646 0
DWIDTH 26 0
BBX 21 37 0 3
BITMAP
1FFFC0
1FFFE0
0FFFC0
C7FF80
E3FF00
F00000
F80000
F80000
F80000
F80000
F80000
F80000
F80000
F80000
F80000
F80000
F80000
700000
27FF00
0FFF80
0FFF80
27FF20
700070
F800F8
F800F8
F800F8
F800F8
F800F8
F800F8
F800F8
F800F8
F800F8
F800F8
F800F8
F00078
E00038
C00018
ENDCHAR
STARTCHAR L
ENCODING 76
SWIDTH 646 0
DWIDTH 26 0
BBX 18 37 0 0
BITMAP
C00000
E00000
F00000
F80000
F80000
F80000
F80000
F80000
F80000
F80000
F80000
F80000
F80000
F80000
700000
200000
000000
000000
200000
700000
F80000
F80000
F80000
F80000
F80000
F80000
F80000
F80000
F80000
F80000
F80000
F00000
E3FE00
C7FF00
0FFF80
1FFFC0
1FFFC0
ENDCHAR
STARTCHAR M
ENCODING 77
SWIDTH 646 0
DWIDTH 26 0
BBX 21 37 0 3
BITMAP
1FFFC0
1FFFE0
0FFFC0
07FF80
03FF00
000000
000000
000000
000000
000000
000000
000000
000000
000000
000000
000000
000000
000000
07FF00
0FFF80
0FFF80
27FF20
700070
F800F8
F800F8
F800F8
F800F8
F800F8
F800F8
F800F8
F800F8
F800F8
F800F8
F800F8
F00078
E00038
C00018
ENDCHAR
STARTCHAR N
ENCODING 78
SWIDTH 646 0
DWIDTH 26 0
BBX 21 37 0 3
BITMAP
1FFFC0
1FFFE0
0FFFC0
C7FF98
E3FF38
F00078
F800F8
F800F8
F800F8
F800F8
F800F8
F800F8
F800F8
F800F8
F800F8
F800F8
F800F8
700070
200020
000000
000000
200020
700070
F800F8
F800F8
F800F8
F800F8
F800F8
F800F8
F800F8
F800F8
F800F8
F800F8
F800F8
F00078
E00038
C00018
ENDCHAR
STARTCHAR O
ENCODING 79
SWIDTH 646 0
DWIDTH 26 0
BBX 21 40 0 0
BITMAP
1FFFC0
1FFFE0
0FFFC0
C7FF98
E3FF38
F00078
F800F8
F800F8
F800F8
F800F8
F800F8
F800F8
F800F8
F800F8
F800F8
F800F8
F800F8
700070
200020
000000
000000
200020
700070
F800F8
F800F8
F800F8
F800F8
F800F8
F800F8
F800F8
F800F8
F800F8
F800F8
F800F8
F00078
E3FE38
C7FF18
0FFF80
1FFFC0
1FFFC0
ENDCHAR
STARTCHAR P
ENCODING 80
SWIDTH 646 0
DWIDTH 26 0
BBX 21 37 0 3
BITMAP
1FFFC0
1FFFE0
0FFFC0
C7FF98
E3FF38
F00078
F800F8
F800F8
F800F8
F800F8
F800F8
F800F8
F800F8
F800F8
F800F8
F800F8
F800F8
700070
27FF20
0FFF80
0FFF80
27FF00
700000
F80000
F80000
F80000
F80000
F80000
F80000
F80000
F80000
F80000
F80000
F80000
F00000
E00000
C00000
ENDCHAR
STARTCHAR Q
ENCODING 81
SWIDTH 646 0
DWIDTH 26 0
BBX 21 37 0 3
BITMAP
1FFFC0
1FFFE0
0FFFC0
C7FF98
E3FF38
F00078
F800F8
F800F8
F800F8
F800F8
F800F8
F800F8
F800F8
F800F8
F800F8
F800F8
F800F8
700070
27FF20
0FFF80
0FFF80
07FF20
000070
0000F8
0000F8
0000F8
0000F8
0000F8
0000F8
0000F8
0000F8
0000F8
0000F8
0000F8
000078
000038
000018
ENDCHAR
STARTCHAR R
ENCODING 82
SWIDTH 646 0
DWIDTH 26 0
BBX 19 37 0 3
BITMAP
1FFFC0
1FFFE0
0FFFC0
C7FF80
E3FF00
F00000
F80000
F80000
F80000
F80000
F80000
F80000
F80000
F80000
F80000
F80000
F80000
700000
200000
000000
000000
200000
700000
F80000
F80000
F80000
F80000
F80000
F80000
F80000
F80000
F80000
F80000
F80000
F00000
E00000
C00000
ENDCHAR
STARTCHAR S
ENCODING 83
SWIDTH 646 0
DWIDTH 26 0
BBX 21 40 0 0
BITMAP
1FFFC0
1FFFE0
0FFFC0
C7FF80
E3FF00
F00000
F80000
F80000
F80000
F80000
F80000
F80000
F80000
F80000
F80000
F80000
F80000
700000
27FF00
0FFF80
0FFF80
07FF20
000070
0000F8
0000F8
0000F8
0000F8
0000F8
0000F8
0000F8
0000F8
0000F8
0000F8
0000F8
000078
03FE38
07FF18
0FFF80
1FFFC0
1FFFC0
ENDCHAR
STARTCHAR T
ENCODING 84
SWIDTH 646 0
DWIDTH 26 0
BBX 18 37 0 0
BITMAP
C00000
E00000
F00000
F80000
F80000
F80000
F80000
F80000
F80000
F80000
F80000
F80000
F80000
F80000
700000
27FF00
0FFF80
0FFF80
27FF00
700000
F80000
F80000
F80000
F80000
F80000
F80000
F80000
F80000
F80000
F80000
F80000
F00000
E3FE00
C7FF00
0FFF80
1FFFC0
1FFFC0
ENDCHAR
STARTCHAR U
ENCODING 85
SWIDTH 646 0
DWIDTH 26 0
BBX 21 37 0 0
BITMAP
C00018
E00038
F00078
F800F8
F800F8
F800F8
F800F8
F800F8
F800F8
F800F8
F800F8
F800F8
F800F8
F800F8
700070
200020
000000
000000
200020
700070
F800F8
F800F8
F800F8
F800F8
F800F8
F800F8
F800F8
F800F8
F800F8
F800F8
F800F8
F00078
E3FE38
C7FF18
0FFF80
1FFFC0
1FFFC0
ENDCHAR
STARTCHAR V
ENCODING 86
SWIDTH 646 0
DWIDTH 26 0
BBX 21 34 0 3
BITMAP
C00018
E00038
F00078
F800F8
F800F8
F800F8
F800F8
F800F8
F800F8
F800F8
F800F8
F800F8
F800F8
F800F8
700070
27FF20
0FFF80
0FFF80
27FF00
700000
F80000
F80000
F80000
F80000
F80000
F80000
F80000
F80000
F80000
F80000
F80000
F00000
E00000
C00000
ENDCHAR
STARTCHAR W
ENCODING 87
SWIDTH 646 0
DWIDTH 26 0
BBX 21 37 0 0
BITMAP
C00018
E00038
F00078
F800F8
F800F8
F800F8
F800F8
F800F8
F800F8
F800F8
F800F8
F800F8
F800F8
F800F8
700070
27FF20
0FFF80
0FFF80
07FF00
000000
000000
000000
000000
000000
000000
000000
000000
000000
000000
000000
000000
000000
03FE00
07FF00
0FFF80
1FFFC0
1FFFC0
ENDCHAR
STARTCHAR X
ENCODING 88
SWIDTH 646 0
DWIDTH 26 0
BBX 21 34 0 3
BITMAP
C00018
E00038
F00078
F800F8
F800F8
F800F8
F800F8
F800F8
F800F8
F800F8
F800F8
F800F8
F800F8
F800F8
700070
200020
000000
000000
200020
700070
F800F8
F800F8
F800F8
F800F8
F800F8
F800F8
F800F8
F800F8
F800F8
F800F8
F800F8
F00078
E00038
C00018
ENDCHAR
STARTCHAR Y
ENCODING 89
SWIDTH 646 0
DWIDTH 26 0
BBX 21 37 0 0
BITMAP
C00018
E00038
F00078
F800F8
F800F8
F800F8
F800F8
F800F8
F800F8
F800F8
F800F8
F800F8
F800F8
F800F8
700070
27FF20
0FFF80
0FFF80
07FF20
000070
0000F8
0000F8
0000F8
0000F8
0000F8
0000F8
0000F8
0000F8
0000F8
0000F8
0000F8
000078
03FE38
07FF18
0FFF80
1FFFC0
1FFFC0
ENDCHAR
STARTCHAR Z
ENCODING 90
SWIDTH 646 0
DWIDTH 26 0
BBX 21 40 0 0
BITMAP
1FFFC0
1FFFE0
0FFFC0
07FF98
03FF38
000078
0000F8
0000F8
0000F8
0000F8
0000F8
0000F8
0000F8
0000F8
0000F8
0000F8
0000F8
000070
07FF20
0FFF80
0FFF80
27FF00
700000
F80000
F80000
F80000
F80000
F80000
F80000
F80000
F80000
F80000
F80000
F80000
F00000
E3FE00
C7FF00
0FFF80
1FFFC0
1FFFC0
ENDCHAR
STARTCHAR bracketleft
ENCODING 91
SWIDTH 646 0
DWIDTH 26 0
BBX 19 40 0 0
BITMAP
1FFFC0
1FFFE0
0FFFC0
C7FF80
E3FF00
F00000
F80000
F80000
F80000
F80000
F80000
F80000
F80000
F80000
F80000
F80000
F80000
700000
200000
000000
000000
200000
700000
F80000
F80000
F80000
F80000
F80000
F80000
F80000
F80000
F80000
F80000
F80000
F00000
E3FE00
C7FF00
0FFF80
1FFFC0
1FFFC0
ENDCHAR
STARTCHAR bracketright
ENCODING 93
SWIDTH 646 0
DWIDTH 26 0
BBX 18 40 3 0
BITMAP
FFFE00
FFFF00
7FFE00
3FFCC0
1FF9C0
0003C0
0007C0
0007C0
0007C0
0007C0
0007C0
0007C0
0007C0
0007C0
0007C0
0007C0
0007C0
000380
000100
000000
000000
000100
000380
0007C0
0007C0
0007C0
0007C0
0007C0
0007C0
0007C0
0007C0
0007C0
0007C0
0007C0
0003C0
1FF1C0
3FF8C0
7FFC00
FFFE00
FFFE00
ENDCHAR
STARTCHAR underscore
ENCODING 95
SWIDTH 646 0
DWIDTH 26 0
BBX 15 5 3 0
BITMAP
1FF0
3FF8
7FFC
FFFE
FFFE
ENDCHAR
STARTCHAR a
ENCODING 97
SWIDTH 646 0
DWIDTH 26 0
BBX 21 40 0 0
BITMAP
1FFFC0
1FFFE0
0FFFC0
07FF98
03FF38
000078
0000F8
0000F8
0000F8
0000F8
0000F8
0000F8
0000F8
0000F8
0000F8
0000F8
0000F8
000070
07FF20
0FFF80
0FFF80
27FF20
700070
F800F8
F800F8
F800F8
F800F8
F800F8
F800F8
F800F8
F800F8
F800F8
F800F8
F800F8
F00078
E3FE38
C7FF18
0FFF80
1FFFC0
1FFFC0
ENDCHAR
STARTCHAR b
ENCODING 98
SWIDTH 646 0
DWIDTH 26 0
BBX 21 37 0 0
BITMAP
C00000
E00000
F00000
F80000
F80000
F80000
F80000
F80000
F80000
F80000
F80000
F80000
F80000
F80000
700000
27FF00
0FFF80
0FFF80
27FF20
700070
F800F8
F800F8
F800F8
F800F8
F800F8
F800F8
F800F8
F800F8
F800F8
F800F8
F800F8
F00078
E3FE38
C7FF18
0FFF80
1FFFC0
1FFFC0
ENDCHAR
STARTCHAR c
ENCODING 99
SWIDTH 646 0
DWIDTH 26 0
BBX 18 22 0 0
BITMAP
07FF00
0FFF80
0FFF80
27FF00
700000
F80000
F80000
F80000
F80000
F80000
F80000
F80000
F80000
F80000
F80000
F80000
F00000
E3FE00
C7FF00
0FFF80
1FFFC0
1FFFC0
ENDCHAR
STARTCHAR d
ENCODING 100
SWIDTH 646 0
DWIDTH 26 0
BBX 21 37 0 0
BITMAP
000018
000038
000078
0000F8
0000F8
0000F8
0000F8
0000F8
0000F8
0000F8
0000F8
0000F8
0000F8
0000F8
000070
07FF20
0FFF80
0FFF80
27FF20
700070
F800F8
F800F8
F800F8
F800F8
F800F8
F800F8
F800F8
F800F8
F800F8
F800F8
F800F8
F00078
E3FE38
C7FF18
0FFF80
1FFFC0
1FFFC0
ENDCHAR
STARTCHAR e
ENCODING 101
SWIDTH 646 0
DWIDTH 26 0
BBX 21 40 0 0
BITMAP
1FFFC0
1FFFE0
0FFFC0
C7FF98
E3FF38
F00078
F800F8
F800F8
F800F8
F800F8
F800F8
F800F8
F800F8
F800F8
F800F8
F800F8
F800F8
700070
27FF20
0FFF80
0FFF80
27FF00
700000
F80000
F80000
F80000
F80000
F80000
F80000
F80000
F80000
F80000
F80000
F80000
F00000
E3FE00
C7FF00
0FFF80
1FFFC0
1FFFC0
ENDCHAR
STARTCHAR f
ENCODING 102
SWIDTH 646 0
DWIDTH 26 0
BBX 19 37 0 3
BITMAP
1FFFC0
1FFFE0
0FFFC0
C7FF80
E3FF00
F00000
F80000
F80000
F80000
F80000
F80000
F80000
F80000
F80000
F80000
F80000
F80000
700000
27FF00
0FFF80
0FFF80
27FF00
700000
F80000
F80000
F80000
F80000
F80000
F80000
F80000
F80000
F80000
F80000
F80000
F00000
E00000
C00000
ENDCHAR
STARTCHAR g
ENCODING 103
SWIDTH 646 0
DWIDTH 26 0
BBX 21 40 0 0
BITMAP
1FFFC0
1FFFE0
0FFFC0
C7FF98
E3FF38
F00078
F800F8
F800F8
F800F8
F800F8
F800F8
F800F8
F800F8
F800F8
F800F8
F800F8
F800F8
700070
27FF20
0FFF80
0FFF80
07FF20
000070
0000F8
0000F8
0000F8
0000F8
0000F8
0000F8
0000F8
0000F8
0000F8
0000F8
0000F8
000078
03FE38
07FF18
0FFF80
1FFFC0
1FFFC0
ENDCHAR
STARTCHAR h
ENCODING 104
SWIDTH 646 0
DWIDTH 26 0
BBX 21 34 0 3
BITMAP
C00000
E00000
F00000
F80000
F80000
F80000
F80000
F80000
F80000
F80000
F80000
F80000
F80000
F80000
700000
27FF00
0FFF80
0FFF80
27FF20
700070
F800F8
F800F8
F800F8
F800F8
F800F8
F800F8
F800F8
F800F8
F800F8
F800F8
F800F8
F00078
E00038
C00018
ENDCHAR
STARTCHAR i
ENCODING 105
SWIDTH 646 0
DWIDTH 26 0
BBX 18 37 3 3
BITMAP
FFFE00
FFFF00
7FFE00
3FFC00
1FF800
000000
000000
000000
000000
000000
000000
000000
000000
000000
000000
000000
000000
000000
3FF800
7FFC00
7FFC00
3FF900
000380
0007C0
0007C0
0007C0
0007C0
0007C0
0007C0
0007C0
0007C0
0007C0
0007C0
0007C0
0003C0
0001C0
0000C0
ENDCHAR
STARTCHAR j
ENCODING 106
SWIDTH 646 0
DWIDTH 26 0
BBX 18 40 3 0
BITMAP
FFFE00
FFFF00
7FFE00
3FFC00
1FF800
000000
000000
000000
000000
000000
000000
000000
000000
000000
000000
000000
000000
000000
000000
000000
000000
000100
000380
0007C0
0007C0
0007C0
0007C0
0007C0
0007C0
0007C0
0007C0
0007C0
0007C0
0007C0
0003C0
1FF1C0
3FF8C0
7FFC00
FFFE00
FFFE00
ENDCHAR
STARTCHAR k
ENCODING 107
SWIDTH 646 0
DWIDTH 26 0
BBX 21 37 0 3
BITMAP
1FFFC0
1FFFE0
0FFFC0
C7FF80
E3FF00
F00000
F80000
F80000
F80000
F80000
F80000
F80000
F80000
F80000
F80000
F80000
F80000
700000
27FF00
0FFF80
0FFF80
27FF20
700070
F800F8
F800F8
F800F8
F800F8
F800F8
F800F8
F800F8
F800F8
F800F8
F800F8
F800F8
F00078
E00038
C00018
ENDCHAR
STARTCHAR l
ENCODING 108
SWIDTH 646 0
DWIDTH 26 0
BBX 18 37 0 0
BITMAP
C00000
E00000
F00000
F80000
F80000
F80000
F80000
F80000
F80000
F80000
F80000
F80000
F80000
F80000
700000
200000
000000
000000
200000
700000
F80000
F80000
F80000
F80000
F80000
F80000
F80000
F80000
F80000
F80000
F80000
F00000
E3FE00
C7FF00
0FFF80
1FFFC0
1FFFC0
ENDCHAR
STARTCHAR m
ENCODING 109
SWIDTH 646 0
DWIDTH 26 0
BBX 21 37 0 3
BITMAP
1FFFC0
1FFFE0
0FFFC0
07FF80
03FF00
000000
000000
000000
000000
000000
000000
000000
000000
000000
000000
000000
000000
000000
07FF00
0FFF80
0FFF80
27FF20
700070
F800F8
F800F8
F800F8
F800F8
F800F8
F800F8
F800F8
F800F8
F800F8
F800F8
F800F8
F00078
E00038
C00018
ENDCHAR
STARTCHAR n
ENCODING 110
SWIDTH 646 0
DWIDTH 26 0
BBX 21 19 0 3
BITMAP
07FF00
0FFF80
0FFF80
27FF20
700070
F800F8
F800F8
F800F8
F800F8
F800F8
F800F8
F800F8
F800F8
F800F8
F800F8
F800F8
F00078
E00038
C00018
ENDCHAR
STARTCHAR o
ENCODING 111
SWIDTH 646 0
DWIDTH 26 0
BBX 21 22 0 0
BITMAP
07FF00
0FFF80
0FFF80
27FF20
700070
F800F8
F800F8
F800F8
F800F8
F800F8
F800F8
F800F8
F800F8
F800F8
F800F8
F800F8
F00078
E3FE38
C7FF18
0FFF80
1FFFC0
1FFFC0
ENDCHAR
STARTCHAR p
ENCODING 112
SWIDTH 646 0
DWIDTH 26 0
BBX 21 37 0 3
BITMAP
1FFFC0
1FFFE0
0FFFC0
C7FF98
E3FF38
F00078
F800F8
F800F8
F800F8
F800F8
F800F8
F800F8
F800F8
F800F8
F800F8
F800F8
F800F8
700070
27FF20
0FFF80
0FFF80
27FF00
700000
F80000
F80000
F80000
F80000
F80000
F80000
F80000
F80000
F80000
F80000
F80000
F00000
E00000
C00000
ENDCHAR
STARTCHAR q
ENCODING 113
SWIDTH 646 0
DWIDTH 26 0
BBX 21 37 0 3
BITMAP
1FFFC0
1FFFE0
0FFFC0
C7FF98
E3FF38
F00078
F800F8
F800F8
F800F8
F800F8
F800F8
F800F8
F800F8
F800F8
F800F8
F800F8
F800F8
700070
27FF20
0FFF80
0FFF80
07FF20
000070
0000F8
0000F8
0000F8
0000F8
0000F8
0000F8
0000F8
0000F8
0000F8
0000F8
0000F8
000078
000038
000018
ENDCHAR
STARTCHAR r
ENCODING 114
SWIDTH 646 0
DWIDTH 26 0
BBX 17 19 0 3
BITMAP
07FF00
0FFF80
0FFF80
27FF00
700000
F80000
F80000
F80000
F80000
F80000
F80000
F80000
F80000
F80000
F80000
F80000
F00000
E00000
C00000
ENDCHAR
STARTCHAR s
ENCODING 115
SWIDTH 646 0
DWIDTH 26 0
BBX 21 40 0 0
BITMAP
1FFFC0
1FFFE0
0FFFC0
C7FF80
E3FF00
F00000
F80000
F80000
F80000
F80000
F80000
F80000
F80000
F80000
F80000
F80000
F80000
700000
27FF00
0FFF80
0FFF80
07FF20
000070
0000F8
0000F8
0000F8
0000F8
0000F8
0000F8
0000F8
0000F8
0000F8
0000F8
0000F8
000078
03FE38
07FF18
0FFF80
1FFFC0
1FFFC0
ENDCHAR
STARTCHAR t
ENCODING 116
SWIDTH 646 0
DWIDTH 26 0
BBX 18 37 0 0
BITMAP
C00000
E00000
F00000
F80000
F80000
F80000
F80000
F80000
F80000
F80000
F80000
F80000
F80000
F80000
700000
27FF00
0FFF80
0FFF80
27FF00
700000
F80000
F80000
F80000
F80000
F80000
F80000
F80000
F80000
F80000
F80000
F80000
F00000
E3FE00
C7FF00
0FFF80
1FFFC0
1FFFC0
ENDCHAR
STARTCHAR u
ENCODING 117
SWIDTH 646 0
DWIDTH 26 0
BBX 21 19 0 0
BITMAP
200020
700070
F800F8
F800F8
F800F8
F800F8
F800F8
F800F8
F800F8
F800F8
F800F8
F800F8
F800F8
F00078
E3FE38
C7FF18
0FFF80
1FFFC0
1FFFC0
ENDCHAR
STARTCHAR v
ENCODING 118
SWIDTH 646 0
DWIDTH 26 0
BBX 21 34 0 3
BITMAP
C00018
E00038
F00078
F800F8
F800F8
F800F8
F800F8
F800F8
F800F8
F800F8
F800F8
F800F8
F800F8
F800F8
700070
27FF20
0FFF80
0FFF80
27FF00
700000
F80000
F80000
F80000
F80000
F80000
F80000
F80000
F80000
F80000
F80000
F80000
F00000
E00000
C00000
ENDCHAR
STARTCHAR w
ENCODING 119
SWIDTH 646 0
DWIDTH 26 0
BBX 21 37 0 0
BITMAP
C00018
E00038
F00078
F800F8
F800F8
F800F8
F800F8
F800F8
F800F8
F800F8
F800F8
F800F8
F800F8
F800F8
700070
27FF20
0FFF80
0FFF80
07FF00
000000
000000
000000
000000
000000
000000
000000
000000
000000
000000
000000
000000
000000
03FE00
07FF00
0FFF80
1FFFC0
1FFFC0
ENDCHAR
STARTCHAR x
ENCODING 120
SWIDTH 646 0
DWIDTH 26 0
BBX 21 34 0 3
BITMAP
C00018
E00038
F00078
F800F8
F800F8
F800F8
F800F8
F800F8
F800F8
F800F8
F800F8
F800F8
F800F8
F800F8
700070
200020
000000
000000
200020
700070
F800F8
F800F8
F800F8
F800F8
F800F8
F800F8
F800F8
F800F8
F800F8
F800F8
F800F8
F00078
E00038
C00018
ENDCHAR
STARTCHAR y
ENCODING 121
SWIDTH 646 0
DWIDTH 26 0
BBX 21 37 0 0
BITMAP
C00018
E00038
F00078
F800F8
F800F8
F800F8
F800F8
F800F8
F800F8
F800F8
F800F8
F800F8
F800F8
F800F8
700070
27FF20
0FFF80
0FFF80
07FF20
000070
0000F8
0000F8
0000F8
0000F8
0000F8
0000F8
0000F8
0000F8
0000F8
0000F8
0000F8
000078
03FE38
07FF18
0FFF80
1FFFC0
1FFFC0
ENDCHAR
STARTCHAR z
ENCODING 122
SWIDTH 646 0
DWIDTH 26 0
BBX 21 40 0 0
BITMAP
1FFFC0
1FFFE0
0FFFC0
07FF98
03FF38
000078
0000F8
0000F8
0000F8
0000F8
0000F8
0000F8
0000F8
0000F8
0000F8
0000F8
0000F8
000070
07FF20
0FFF80
0FFF80
27FF00
700000
F80000
F80000
F80000
F80000
F80000
F80000
F80000
F80000
F80000
F80000
F80000
F00000
E3FE00
C7FF00
0FFF80
1FFFC0
1FFFC0
ENDCHAR
STARTCHAR degree
ENCODING 176
SWIDTH 225 0
DWIDTH 9 0
BBX 7 7 0 32
BITMAP
38
44
82
82
82
44
38
ENDCHAR
STARTCHAR quoteleft
ENCODING 8216
SWIDTH 646 0
DWIDTH 26 0
BBX 5 16 0 21
BITMAP
C0
E0
F0
F8
F8
F8
F8
F8
F8
F8
F8
F8
F8
F8
70
20
ENDCHAR
STARTCHAR quoteright
ENCODING 8217
SWIDTH 646 0
DWIDTH 26 0
BBX 5 16 16 21
BITMAP
18
38
78
F8
F8
F8
F8
F8
F8
F8
F8
F8
F8
F8
70
20
ENDCHAR
STARTCHAR quotedblleft
ENCODING 8220
SWIDTH 646 0
DWIDTH 26 0
BBX 21 16 0 21
BITMAP
C00018
E00038
F00078
F800F8
F800F8
F800F8
F800F8
F800F8
F800F8
F800F8
F800F8
F800F8
F800F8
F800F8
700070
200020
ENDCHAR
STARTCHAR quotedblright
ENCODING 8221
SWIDTH 646 0
DWIDTH 26 0
BBX 21 16 0 21
BITMAP
C00018
E00038
F00078
F800F8
F800F8
F800F8
F800F8
F800F8
F800F8
F800F8
F800F8
F800F8
F800F8
F800F8
700070
200020
ENDCHAR
STARTCHAR .notdef
ENCODING 8224
SWIDTH 827 0
DWIDTH 33 0
BBX 31 40 0 0
BITMAP
FFFFFFFE
C0000006
A000000A
80000002
90000002
88000022
84000042
80000082
82000002
81000102
80800202
80000402
80400002
80200802
80101002
80002002
80080002
80044002
80028002
80010002
80010002
80028002
80044002
80080002
80002002
80101002
80200802
80400002
80000402
80800202
81000102
82000002
80000082
84000042
88000022
90000002
80000002
A000000A
C0000006
FFFFFFFE
ENDCHAR
ENDFONT
